<?xml version="1.0" encoding="UTF-8" ?>
<!DOCTYPE svg PUBLIC "-//W3C//DTD SVG 1.1//EN" "http://www.w3.org/Graphics/SVG/1.1/DTD/svg11.dtd">
<svg width="1024pt" height="1024pt" viewBox="0 0 1024 1024" version="1.1" xmlns="http://www.w3.org/2000/svg">
<g id="#ffffffff">
<path fill="#ffffff" opacity="1.00" d=" M 0.00 0.00 L 1024.00 0.00 L 1024.00 1024.00 L 0.00 1024.00 L 0.00 0.00 M 657.30 104.36 C 645.29 108.39 646.12 128.76 659.02 130.83 C 685.94 132.32 713.05 136.91 737.73 148.20 C 766.66 161.45 792.89 181.37 811.88 207.05 C 835.97 238.35 849.81 277.57 850.19 317.09 C 850.28 323.14 853.95 329.43 860.08 331.00 C 868.03 334.11 877.71 327.53 878.03 319.06 C 878.97 261.89 854.46 205.23 813.06 165.94 C 775.02 128.70 723.09 106.28 669.97 103.62 C 665.75 103.40 661.39 103.08 657.30 104.36 M 459.28 164.30 C 455.52 180.15 452.25 196.13 448.01 211.86 C 446.98 215.63 443.01 216.78 439.69 217.68 C 421.75 222.16 404.14 228.22 387.64 236.63 C 384.10 238.47 379.40 240.11 376.02 237.03 C 362.20 226.12 347.99 215.69 333.88 205.15 C 329.04 201.47 322.00 202.75 318.06 207.14 C 299.02 225.42 280.34 244.10 262.30 263.37 C 257.96 267.47 255.56 274.54 259.18 279.85 C 268.92 293.21 278.45 306.73 287.40 320.63 C 289.42 323.51 289.43 327.49 287.32 330.33 C 275.93 348.59 266.50 368.07 259.51 388.44 C 258.57 392.36 254.57 393.84 250.99 394.24 C 237.99 396.02 225.09 398.46 212.05 399.91 C 207.10 400.73 201.57 400.78 197.55 404.15 C 193.83 407.73 193.68 413.11 193.20 417.90 C 192.03 442.63 190.29 467.33 189.15 492.06 C 189.03 497.72 192.73 503.25 198.36 504.60 C 211.71 508.51 225.39 511.21 238.93 514.35 C 243.51 515.83 249.93 515.92 251.34 521.64 C 256.03 542.87 263.27 563.55 272.88 583.06 C 274.31 586.01 276.32 589.86 273.80 592.82 C 266.76 602.45 259.72 612.08 252.73 621.75 C 248.80 626.79 248.20 634.52 252.30 639.64 C 262.81 651.66 274.30 662.76 285.18 674.44 C 293.26 682.82 301.43 691.10 309.59 699.40 C 312.08 701.71 314.44 704.57 317.82 705.54 C 325.18 707.79 331.45 701.80 337.43 698.47 C 345.57 694.11 352.89 688.32 361.08 684.12 C 369.31 683.46 374.68 692.19 382.22 694.46 C 396.47 704.04 412.80 709.98 428.65 716.38 C 431.31 717.45 433.99 719.32 434.43 722.39 C 437.91 738.17 440.38 754.17 444.01 769.91 C 445.58 776.52 452.91 778.86 458.96 778.81 C 489.98 778.82 521.00 778.77 552.02 778.84 C 555.37 778.87 558.99 778.67 561.65 776.33 C 564.40 775.24 565.58 772.00 566.40 769.36 C 569.98 755.08 572.34 740.49 576.36 726.32 C 577.30 722.23 581.01 719.82 584.83 718.80 C 609.15 711.23 632.12 699.96 653.91 686.89 L 653.59 686.50 C 656.19 685.29 659.37 684.13 662.04 685.88 C 673.40 692.90 684.50 700.47 696.41 706.56 C 701.74 709.45 708.22 707.37 712.29 703.28 C 722.35 693.55 732.06 683.44 741.82 673.41 C 751.50 663.58 761.10 653.65 770.45 643.50 C 774.47 639.52 775.24 632.90 771.62 628.40 C 762.93 616.47 753.80 604.85 745.18 592.87 C 740.23 586.85 748.31 580.72 749.37 574.70 C 757.69 558.42 762.57 540.56 766.75 522.82 C 767.43 519.99 769.27 517.12 772.16 516.20 C 788.56 512.23 805.25 509.34 821.45 504.54 C 827.75 502.94 830.36 495.91 830.09 490.00 C 828.73 465.68 827.53 441.36 826.09 417.05 C 825.86 413.38 825.67 409.40 823.31 406.37 C 821.60 402.67 817.04 401.29 813.30 400.56 C 797.05 398.31 780.85 395.72 764.60 393.48 C 761.79 393.09 759.30 391.22 758.52 388.43 C 751.94 369.55 743.61 351.18 732.78 334.34 C 731.60 332.43 730.37 329.96 731.84 327.86 C 736.95 318.16 743.47 309.26 748.68 299.63 C 751.54 294.60 748.35 288.97 744.68 285.37 C 726.72 266.99 708.60 248.67 688.85 232.19 C 685.55 229.05 680.67 227.58 676.34 229.39 C 667.41 233.40 659.65 239.53 650.97 243.98 C 646.13 246.56 641.57 242.48 637.39 240.49 C 621.54 231.68 604.60 225.06 587.33 219.62 C 583.18 218.40 577.14 218.37 575.70 213.32 C 571.14 197.28 568.18 180.85 564.42 164.62 C 563.57 160.05 560.65 155.31 555.84 154.36 C 549.37 152.75 542.59 153.88 536.00 153.55 C 513.41 153.98 490.65 152.61 468.19 154.35 C 463.29 154.98 460.19 159.74 459.28 164.30 M 657.33 171.41 C 652.02 173.22 648.75 178.59 648.17 183.98 C 647.46 191.18 653.73 198.19 661.02 198.19 C 692.27 199.28 723.46 211.08 746.26 232.74 C 769.33 254.72 783.19 286.07 783.73 317.96 C 783.36 322.51 785.67 327.10 789.58 329.48 C 797.61 335.22 809.73 329.73 811.00 320.05 C 812.35 288.60 802.15 256.95 783.21 231.86 C 757.32 196.63 715.46 174.14 671.97 170.92 C 667.10 171.00 662.08 169.90 657.33 171.41 M 734.30 738.32 C 730.46 739.71 728.36 743.48 727.08 747.13 C 714.33 780.22 700.63 812.95 687.94 846.07 C 686.09 850.27 686.52 855.75 690.30 858.75 C 695.94 863.63 705.25 860.50 707.54 853.61 C 720.10 822.17 733.04 790.87 745.33 759.32 C 747.16 754.25 750.60 748.91 748.56 743.37 C 746.10 738.28 739.39 736.34 734.30 738.32 M 291.65 766.96 C 271.41 767.06 251.16 766.95 230.92 767.01 C 224.54 767.39 219.76 774.32 221.41 780.44 C 222.37 784.89 226.29 788.62 230.94 788.77 C 251.17 789.13 271.43 788.37 291.64 789.12 C 295.16 798.90 303.75 806.93 314.09 808.84 C 329.18 812.98 345.95 803.55 351.15 788.97 C 366.97 788.41 382.85 789.36 398.64 788.55 C 409.30 786.36 408.47 768.74 397.75 767.27 C 382.19 766.63 366.55 767.19 350.95 767.00 C 346.93 754.16 333.37 745.40 320.04 746.66 C 307.48 746.59 295.68 755.09 291.65 766.96 M 649.44 752.33 C 636.89 764.48 624.60 776.93 612.30 789.34 C 607.40 793.92 606.98 802.19 612.31 806.63 C 623.87 818.75 635.95 830.38 647.79 842.23 C 650.96 845.82 655.82 848.46 660.67 846.66 C 668.05 844.58 670.79 834.21 665.16 828.91 C 655.12 818.38 644.33 808.56 634.22 798.09 C 642.90 789.82 651.10 781.05 659.69 772.68 C 663.27 768.74 668.86 765.03 668.10 758.96 C 667.41 750.47 655.42 746.42 649.44 752.33 M 764.30 754.36 C 761.88 758.37 762.61 763.85 766.09 767.03 C 776.50 777.11 786.64 787.47 797.11 797.49 C 787.02 808.87 775.13 818.65 765.22 830.23 C 761.43 834.25 762.00 841.33 766.26 844.80 C 770.55 847.97 777.25 848.23 781.13 844.24 C 793.73 831.79 806.06 819.06 818.61 806.56 C 821.02 804.02 823.09 800.72 822.83 797.09 C 822.33 792.82 818.69 790.03 816.15 786.91 C 804.67 775.36 793.14 763.87 781.51 752.48 C 776.78 747.70 767.77 748.47 764.30 754.36 M 229.40 835.57 C 217.58 838.20 220.11 857.58 232.08 857.72 C 286.36 857.88 340.67 857.81 394.95 857.78 C 402.32 857.90 408.12 850.11 405.92 843.08 C 404.68 838.34 400.02 834.77 395.06 835.16 C 339.85 835.58 284.57 834.75 229.40 835.57 Z" />
<path fill="#ffffff" opacity="1.00" d=" M 465.18 267.44 C 481.98 264.71 499.10 263.67 516.10 264.75 C 540.11 265.33 564.64 269.57 585.87 281.30 C 592.69 285.52 599.21 290.25 604.75 296.08 C 617.23 309.04 622.54 327.34 622.98 344.99 C 623.02 354.71 622.99 364.43 622.98 374.15 C 632.27 374.13 641.65 373.70 650.84 375.42 C 669.83 378.88 688.46 387.84 700.77 403.07 C 716.96 422.53 723.48 448.16 724.56 473.02 C 726.22 505.60 720.00 540.79 697.76 565.93 C 686.95 578.00 672.40 586.34 656.82 590.55 C 645.78 593.39 634.33 594.16 622.97 593.85 C 623.00 601.90 622.99 609.95 623.01 618.00 C 622.84 638.68 614.51 660.01 597.91 672.96 C 590.39 679.14 581.82 683.92 572.88 687.72 C 553.25 695.44 531.98 698.11 510.99 697.81 C 491.33 697.66 471.60 694.58 453.18 687.57 C 438.39 681.37 424.27 672.63 414.21 659.92 C 407.24 650.36 401.66 639.52 399.43 627.83 C 397.04 616.64 397.52 605.13 397.44 593.77 C 380.79 594.21 363.64 593.15 348.10 586.66 C 321.82 576.12 304.80 550.64 298.39 523.83 C 292.43 499.04 291.99 472.86 296.85 447.84 C 300.30 431.98 306.72 416.54 317.17 403.98 C 330.65 388.45 350.00 378.67 370.19 375.48 C 377.77 374.22 385.45 374.13 393.10 374.09 C 393.75 352.86 390.03 330.58 398.59 310.43 C 402.88 301.38 409.22 293.26 417.03 286.96 C 430.86 276.05 447.97 270.27 465.18 267.44 M 441.70 292.76 C 426.19 298.87 413.22 312.90 411.89 330.00 C 411.69 344.74 411.89 359.49 411.74 374.23 C 438.17 374.35 464.59 374.26 491.02 374.33 C 494.61 374.28 498.84 374.86 500.82 378.28 C 504.65 383.96 499.67 392.42 492.96 392.39 C 456.96 392.73 420.95 392.40 384.95 392.58 C 367.40 392.70 349.20 398.02 336.14 410.16 C 325.97 419.30 319.44 431.85 315.83 444.90 C 311.06 463.32 310.96 482.59 312.38 501.44 C 314.54 524.16 322.31 548.52 341.23 562.77 C 357.26 574.92 378.22 576.03 397.55 575.34 C 397.02 557.48 396.80 539.02 403.03 522.00 C 409.29 503.80 424.11 489.18 441.73 481.80 C 454.77 476.48 468.91 473.76 482.99 474.15 C 504.65 474.15 526.31 474.24 547.97 474.13 C 567.44 473.32 588.81 465.46 597.93 446.96 C 603.60 435.88 603.33 423.12 603.27 411.01 C 603.15 387.34 603.43 363.67 603.05 340.01 C 602.66 331.33 600.22 322.69 595.78 315.20 C 588.04 302.91 575.02 294.93 561.44 290.52 C 541.29 284.18 519.97 283.35 499.01 283.38 C 479.65 283.96 459.83 285.38 441.70 292.76 M 622.98 392.56 C 622.69 405.03 623.86 417.62 621.68 429.97 C 619.39 447.11 611.46 463.85 598.00 475.00 C 582.41 487.82 561.77 492.34 542.00 492.90 C 519.34 492.88 496.69 492.76 474.03 492.88 C 456.27 493.09 437.83 500.48 427.20 515.16 C 418.99 526.26 416.71 540.50 416.86 554.01 C 416.86 573.00 416.79 592.00 416.94 610.99 C 417.01 623.76 420.31 636.71 427.74 647.23 C 436.51 659.73 450.28 667.86 464.63 672.41 C 489.86 680.26 516.92 681.51 542.94 677.30 C 557.72 674.57 572.75 670.27 584.70 660.74 C 595.98 652.53 602.89 638.86 603.16 624.95 C 603.41 614.21 603.31 603.46 603.18 592.71 C 579.11 592.67 555.03 592.76 530.95 592.68 C 526.64 592.84 522.64 589.45 522.77 584.99 C 521.73 579.60 527.10 575.20 532.19 575.63 C 567.11 575.01 602.05 575.64 636.98 575.24 C 656.36 574.82 675.31 565.46 687.25 550.15 C 698.93 535.75 703.57 517.13 705.76 499.08 C 707.08 479.25 706.73 458.83 700.15 439.86 C 694.40 422.93 682.90 407.40 666.71 399.26 C 653.26 392.24 637.75 392.15 622.98 392.56 Z" />
<path fill="#ffffff" opacity="1.00" d=" M 447.34 317.45 C 459.55 313.16 473.16 325.28 469.81 337.91 C 467.44 350.92 449.51 355.72 440.33 346.69 C 430.89 338.17 435.00 320.72 447.34 317.45 Z" />
<path fill="#ffffff" opacity="1.00" d=" M 559.34 614.47 C 567.40 611.69 577.14 615.61 580.45 623.58 C 585.21 633.34 576.98 646.48 566.01 646.08 C 558.42 646.77 550.79 641.46 548.98 634.03 C 546.66 626.11 551.51 617.03 559.34 614.47 Z" />
<path fill="#ffffff" opacity="1.00" d=" M 316.31 764.34 C 323.05 761.74 331.23 765.22 334.16 771.79 C 338.50 779.90 332.29 791.26 323.11 791.97 C 316.59 792.79 309.95 788.66 307.48 782.65 C 304.82 775.42 308.92 766.66 316.31 764.34 Z" />
</g>
<g id="#1b3952ff">
<path fill="#1b3952" opacity="1.00" d=" M 657.30 104.36 C 661.39 103.08 665.75 103.40 669.97 103.62 C 723.09 106.28 775.02 128.70 813.06 165.94 C 854.46 205.23 878.97 261.89 878.03 319.06 C 877.71 327.53 868.03 334.11 860.08 331.00 C 853.95 329.43 850.28 323.14 850.19 317.09 C 849.81 277.57 835.97 238.35 811.88 207.05 C 792.89 181.37 766.66 161.45 737.73 148.20 C 713.05 136.91 685.94 132.32 659.02 130.83 C 646.12 128.76 645.29 108.39 657.30 104.36 Z" />
<path fill="#1b3952" opacity="1.00" d=" M 468.19 154.35 C 490.65 152.61 513.41 153.98 536.00 153.55 C 542.59 153.88 549.37 152.75 555.84 154.36 C 552.07 155.94 547.95 155.24 543.99 155.32 C 522.66 155.32 501.33 155.31 479.99 155.33 C 476.04 155.29 471.95 155.87 468.19 154.35 Z" />
<path fill="#1b3952" opacity="1.00" d=" M 657.33 171.41 C 662.08 169.90 667.10 171.00 671.97 170.92 C 715.46 174.14 757.32 196.63 783.21 231.86 C 802.15 256.95 812.35 288.60 811.00 320.05 C 809.73 329.73 797.61 335.22 789.58 329.48 C 785.67 327.10 783.36 322.51 783.73 317.96 C 783.19 286.07 769.33 254.72 746.26 232.74 C 723.46 211.08 692.27 199.28 661.02 198.19 C 653.73 198.19 647.46 191.18 648.17 183.98 C 648.75 178.59 652.02 173.22 657.33 171.41 Z" />
<path fill="#1b3952" opacity="1.00" d=" M 473.65 264.39 C 486.91 261.41 500.55 263.15 514.00 262.65 C 537.38 263.53 561.22 266.98 582.40 277.50 C 584.18 278.57 586.86 279.07 587.35 281.46 L 585.87 281.30 C 564.64 269.57 540.11 265.33 516.10 264.75 C 499.10 263.67 481.98 264.71 465.18 267.44 C 464.27 267.40 462.45 267.33 461.54 267.29 C 464.51 264.46 469.74 265.41 473.65 264.39 Z" />
<path fill="#1b3952" opacity="1.00" d=" M 441.70 292.76 C 459.83 285.38 479.65 283.96 499.01 283.38 C 519.97 283.35 541.29 284.18 561.44 290.52 C 575.02 294.93 588.04 302.91 595.78 315.20 C 600.22 322.69 602.66 331.33 603.05 340.01 C 603.43 363.67 603.15 387.34 603.27 411.01 C 603.33 423.12 603.60 435.88 597.93 446.96 C 588.81 465.46 567.44 473.32 547.97 474.13 C 526.31 474.24 504.65 474.15 482.99 474.15 C 468.91 473.76 454.77 476.48 441.73 481.80 C 424.11 489.18 409.29 503.80 403.03 522.00 C 396.80 539.02 397.02 557.48 397.55 575.34 C 378.22 576.03 357.26 574.92 341.23 562.77 C 322.31 548.52 314.54 524.16 312.38 501.44 C 310.96 482.59 311.06 463.32 315.83 444.90 C 319.44 431.85 325.97 419.30 336.14 410.16 C 349.20 398.02 367.40 392.70 384.95 392.58 C 420.95 392.40 456.96 392.73 492.96 392.39 C 499.67 392.42 504.65 383.96 500.82 378.28 C 498.84 374.86 494.61 374.28 491.02 374.33 C 464.59 374.26 438.17 374.35 411.74 374.23 C 411.89 359.49 411.69 344.74 411.89 330.00 C 413.22 312.90 426.19 298.87 441.70 292.76 M 447.34 317.45 C 435.00 320.72 430.89 338.17 440.33 346.69 C 449.51 355.72 467.44 350.92 469.81 337.91 C 473.16 325.28 459.55 313.16 447.34 317.45 Z" />
<path fill="#1b3952" opacity="1.00" d=" M 412.13 289.13 C 413.64 287.59 415.11 285.75 417.45 285.63 L 417.03 286.96 C 409.22 293.26 402.88 301.38 398.59 310.43 C 390.03 330.58 393.75 352.86 393.10 374.09 C 385.45 374.13 377.77 374.22 370.19 375.48 C 369.53 375.45 368.21 375.38 367.55 375.35 C 373.86 371.34 383.66 373.42 391.40 372.41 C 392.16 354.98 389.21 337.13 393.66 319.99 C 396.00 307.93 403.50 297.56 412.13 289.13 Z" />
<path fill="#1b3952" opacity="1.00" d=" M 604.52 294.70 C 616.78 303.99 621.79 320.27 624.19 334.97 C 623.73 347.33 626.72 359.71 624.39 372.02 C 633.62 374.48 645.50 369.99 653.43 375.34 C 652.78 375.36 651.49 375.40 650.84 375.42 C 641.65 373.70 632.27 374.13 622.98 374.15 C 622.99 364.43 623.02 354.71 622.98 344.99 C 622.54 327.34 617.23 309.04 604.75 296.08 L 604.52 294.70 Z" />
<path fill="#1b3952" opacity="1.00" d=" M 622.98 392.56 C 637.75 392.15 653.26 392.24 666.71 399.26 C 682.90 407.40 694.40 422.93 700.15 439.86 C 706.73 458.83 707.08 479.25 705.76 499.08 C 703.57 517.13 698.93 535.75 687.25 550.15 C 675.31 565.46 656.36 574.82 636.98 575.24 C 602.05 575.64 567.11 575.01 532.19 575.63 C 527.10 575.20 521.73 579.60 522.77 584.99 C 522.64 589.45 526.64 592.84 530.95 592.68 C 555.03 592.76 579.11 592.67 603.18 592.71 C 603.31 603.46 603.41 614.21 603.16 624.95 C 602.89 638.86 595.98 652.53 584.70 660.74 C 572.75 670.27 557.72 674.57 542.94 677.30 C 516.92 681.51 489.86 680.26 464.63 672.41 C 450.28 667.86 436.51 659.73 427.74 647.23 C 420.31 636.71 417.01 623.76 416.94 610.99 C 416.79 592.00 416.86 573.00 416.86 554.01 C 416.71 540.50 418.99 526.26 427.20 515.16 C 437.83 500.48 456.27 493.09 474.03 492.88 C 496.69 492.76 519.34 492.88 542.00 492.90 C 561.77 492.34 582.41 487.82 598.00 475.00 C 611.46 463.85 619.39 447.11 621.68 429.97 C 623.86 417.62 622.69 405.03 622.98 392.56 M 559.34 614.47 C 551.51 617.03 546.66 626.11 548.98 634.03 C 550.79 641.46 558.42 646.77 566.01 646.08 C 576.98 646.48 585.21 633.34 580.45 623.58 C 577.14 615.61 567.40 611.69 559.34 614.47 Z" />
<path fill="#1b3952" opacity="1.00" d=" M 700.52 401.66 C 704.16 403.14 705.78 407.03 708.13 409.92 C 722.61 432.32 727.42 459.65 726.33 485.98 C 726.43 513.22 719.38 541.52 702.33 563.24 C 701.03 564.93 699.49 566.46 697.50 567.32 L 697.76 565.93 C 720.00 540.79 726.22 505.60 724.56 473.02 C 723.48 448.16 716.96 422.53 700.77 403.07 L 700.52 401.66 Z" />
<path fill="#1b3952" opacity="1.00" d=" M 307.30 415.29 C 310.19 410.76 312.39 405.15 317.48 402.64 L 317.17 403.98 C 306.72 416.54 300.30 431.98 296.85 447.84 C 291.99 472.86 292.43 499.04 298.39 523.83 L 298.49 525.31 C 295.31 523.73 295.93 519.02 294.82 515.98 C 288.90 482.40 290.19 445.61 307.30 415.29 Z" />
<path fill="#1b3952" opacity="1.00" d=" M 193.20 417.90 C 193.68 413.11 193.83 407.73 197.55 404.15 C 197.91 407.93 195.38 411.19 195.33 414.94 C 194.20 434.99 192.71 454.99 192.11 475.04 C 191.31 482.33 190.50 489.84 191.99 497.09 C 193.56 502.44 199.83 503.21 204.40 504.52 C 216.67 508.10 229.61 509.51 241.58 513.90 C 240.92 514.02 239.59 514.24 238.93 514.35 C 225.39 511.21 211.71 508.51 198.36 504.60 C 192.73 503.25 189.03 497.72 189.15 492.06 C 190.29 467.33 192.03 442.63 193.20 417.90 Z" />
<path fill="#1b3952" opacity="1.00" d=" M 826.76 460.98 C 825.57 442.79 825.20 424.43 823.31 406.37 C 825.67 409.40 825.86 413.38 826.09 417.05 C 827.53 441.36 828.73 465.68 830.09 490.00 C 830.36 495.91 827.75 502.94 821.45 504.54 C 805.25 509.34 788.56 512.23 772.16 516.20 C 769.27 517.12 767.43 519.99 766.75 522.82 C 762.57 540.56 757.69 558.42 749.37 574.70 C 748.58 571.75 750.32 569.10 751.38 566.48 C 757.63 552.34 761.40 537.29 765.18 522.34 C 765.96 518.33 769.23 515.07 773.16 514.09 C 788.42 510.83 803.68 507.50 818.80 503.62 C 822.73 502.72 827.02 500.18 827.61 495.83 C 828.76 484.21 826.82 472.59 826.76 460.98 Z" />
<path fill="#1b3952" opacity="1.00" d=" M 346.62 586.46 L 348.10 586.66 C 363.64 593.15 380.79 594.21 397.44 593.77 C 397.52 605.13 397.04 616.64 399.43 627.83 C 401.66 639.52 407.24 650.36 414.21 659.92 L 414.49 661.36 C 409.33 658.18 406.98 651.87 404.21 646.67 C 395.54 631.07 395.35 612.69 395.67 595.32 C 381.29 595.59 366.50 595.40 352.88 590.16 C 350.72 589.15 347.54 589.05 346.62 586.46 Z" />
<path fill="#1b3952" opacity="1.00" d=" M 622.97 593.85 C 634.33 594.16 645.78 593.39 656.82 590.55 L 658.29 590.59 L 657.90 591.88 C 647.27 595.78 635.69 594.97 624.58 595.58 C 624.98 603.47 626.09 611.50 624.59 619.44 C 624.49 638.48 616.94 657.78 602.87 670.86 C 601.42 672.42 599.86 674.08 597.59 674.24 L 597.91 672.96 C 614.51 660.01 622.84 638.68 623.01 618.00 C 622.99 609.95 623.00 601.90 622.97 593.85 Z" />
<path fill="#1b3952" opacity="1.00" d=" M 738.10 675.12 C 739.13 674.22 740.23 672.81 741.82 673.41 C 732.06 683.44 722.35 693.55 712.29 703.28 C 708.22 707.37 701.74 709.45 696.41 706.56 C 684.50 700.47 673.40 692.90 662.04 685.88 C 659.37 684.13 656.19 685.29 653.59 686.50 L 652.93 685.70 C 656.12 681.79 661.73 683.00 665.31 685.66 C 674.57 692.27 684.38 698.10 694.34 703.59 C 699.32 706.55 706.27 707.02 710.59 702.61 C 719.82 693.52 728.97 684.32 738.10 675.12 Z" />
<path fill="#1b3952" opacity="1.00" d=" M 285.18 674.44 C 286.99 673.65 288.20 675.63 289.42 676.58 C 296.88 684.46 304.87 691.80 312.34 699.66 C 314.54 702.08 317.55 703.50 320.47 704.86 C 319.81 705.03 318.49 705.37 317.82 705.54 C 314.44 704.57 312.08 701.71 309.59 699.40 C 301.43 691.10 293.26 682.82 285.18 674.44 Z" />
<path fill="#1b3952" opacity="1.00" d=" M 451.66 687.49 L 453.18 687.57 C 471.60 694.58 491.33 697.66 510.99 697.81 C 531.98 698.11 553.25 695.44 572.88 687.72 L 574.28 687.57 C 572.02 691.30 566.66 691.36 562.92 693.06 C 527.80 702.73 489.55 702.18 455.06 690.10 C 453.79 689.48 451.74 689.30 451.66 687.49 Z" />
<path fill="#1b3952" opacity="1.00" d=" M 382.22 694.46 C 385.79 694.35 388.65 696.78 391.74 698.22 C 403.43 704.75 415.99 709.47 428.37 714.52 C 431.21 715.82 434.88 717.00 435.57 720.51 C 440.15 737.06 441.80 754.30 446.19 770.88 C 448.41 776.87 455.68 776.87 461.01 776.79 C 494.55 776.57 528.16 777.31 561.65 776.33 C 558.99 778.67 555.37 778.87 552.02 778.84 C 521.00 778.77 489.98 778.82 458.96 778.81 C 452.91 778.86 445.58 776.52 444.01 769.91 C 440.38 754.17 437.91 738.17 434.43 722.39 C 433.99 719.32 431.31 717.45 428.65 716.38 C 412.80 709.98 396.47 704.04 382.22 694.46 Z" />
<path fill="#1b3952" opacity="1.00" d=" M 734.30 738.32 C 739.39 736.34 746.10 738.28 748.56 743.37 C 750.60 748.91 747.16 754.25 745.33 759.32 C 733.04 790.87 720.10 822.17 707.54 853.61 C 705.25 860.50 695.94 863.63 690.30 858.75 C 686.52 855.75 686.09 850.27 687.94 846.07 C 700.63 812.95 714.33 780.22 727.08 747.13 C 728.36 743.48 730.46 739.71 734.30 738.32 Z" />
<path fill="#1b3952" opacity="1.00" d=" M 291.65 766.96 C 295.68 755.09 307.48 746.59 320.04 746.66 C 333.37 745.40 346.93 754.16 350.95 767.00 C 366.55 767.19 382.19 766.63 397.75 767.27 C 408.47 768.74 409.30 786.36 398.64 788.55 C 382.85 789.36 366.97 788.41 351.15 788.97 C 345.95 803.55 329.18 812.98 314.09 808.84 C 303.75 806.93 295.16 798.90 291.64 789.12 C 271.43 788.37 251.17 789.13 230.94 788.77 C 226.29 788.62 222.37 784.89 221.41 780.44 C 219.76 774.32 224.54 767.39 230.92 767.01 C 251.16 766.95 271.41 767.06 291.65 766.96 M 316.31 764.34 C 308.92 766.66 304.82 775.42 307.48 782.65 C 309.95 788.66 316.59 792.79 323.11 791.97 C 332.29 791.26 338.50 779.90 334.16 771.79 C 331.23 765.22 323.05 761.74 316.31 764.34 Z" />
<path fill="#1b3952" opacity="1.00" d=" M 649.44 752.33 C 655.42 746.42 667.41 750.47 668.10 758.96 C 668.86 765.03 663.27 768.74 659.69 772.68 C 651.10 781.05 642.90 789.82 634.22 798.09 C 644.33 808.56 655.12 818.38 665.16 828.91 C 670.79 834.21 668.05 844.58 660.67 846.66 C 655.82 848.46 650.96 845.82 647.79 842.23 C 635.95 830.38 623.87 818.75 612.31 806.63 C 606.98 802.19 607.40 793.92 612.30 789.34 C 624.60 776.93 636.89 764.48 649.44 752.33 Z" />
<path fill="#1b3952" opacity="1.00" d=" M 764.30 754.36 C 767.77 748.47 776.78 747.70 781.51 752.48 C 793.14 763.87 804.67 775.36 816.15 786.91 C 818.69 790.03 822.33 792.82 822.83 797.09 C 823.09 800.72 821.02 804.02 818.61 806.56 C 806.06 819.06 793.73 831.79 781.13 844.24 C 777.25 848.23 770.55 847.97 766.26 844.80 C 762.00 841.33 761.43 834.25 765.22 830.23 C 775.13 818.65 787.02 808.87 797.11 797.49 C 786.64 787.47 776.50 777.11 766.09 767.03 C 762.61 763.85 761.88 758.37 764.30 754.36 Z" />
<path fill="#1b3952" opacity="1.00" d=" M 229.40 835.57 C 284.57 834.75 339.85 835.58 395.06 835.16 C 400.02 834.77 404.68 838.34 405.92 843.08 C 408.12 850.11 402.32 857.90 394.95 857.78 C 340.67 857.81 286.36 857.88 232.08 857.72 C 220.11 857.58 217.58 838.20 229.40 835.57 Z" />
</g>
<g id="#234a67ff">
<path fill="#234a67" opacity="1.00" d=" M 459.28 164.30 C 460.19 159.74 463.29 154.98 468.19 154.35 C 471.95 155.87 476.04 155.29 479.99 155.33 C 501.33 155.31 522.66 155.32 543.99 155.32 C 547.95 155.24 552.07 155.94 555.84 154.36 C 560.65 155.31 563.57 160.05 564.42 164.62 C 568.18 180.85 571.14 197.28 575.70 213.32 C 577.14 218.37 583.18 218.40 587.33 219.62 C 604.60 225.06 621.54 231.68 637.39 240.49 C 641.57 242.48 646.13 246.56 650.97 243.98 C 659.65 239.53 667.41 233.40 676.34 229.39 C 680.67 227.58 685.55 229.05 688.85 232.19 C 708.60 248.67 726.72 266.99 744.68 285.37 C 748.35 288.97 751.54 294.60 748.68 299.63 C 743.47 309.26 736.95 318.16 731.84 327.86 C 730.37 329.96 731.60 332.43 732.78 334.34 C 743.61 351.18 751.94 369.55 758.52 388.43 C 759.30 391.22 761.79 393.09 764.60 393.48 C 780.85 395.72 797.05 398.31 813.30 400.56 C 817.04 401.29 821.60 402.67 823.31 406.37 C 825.20 424.43 825.57 442.79 826.76 460.98 C 826.82 472.59 828.76 484.21 827.61 495.83 C 827.02 500.18 822.73 502.72 818.80 503.62 C 803.68 507.50 788.42 510.83 773.16 514.09 C 769.23 515.07 765.96 518.33 765.18 522.34 C 761.40 537.29 757.63 552.34 751.38 566.48 C 750.32 569.10 748.58 571.75 749.37 574.70 C 748.31 580.72 740.23 586.85 745.18 592.87 C 753.80 604.85 762.93 616.47 771.62 628.40 C 775.24 632.90 774.47 639.52 770.45 643.50 C 761.10 653.65 751.50 663.58 741.82 673.41 C 740.23 672.81 739.13 674.22 738.10 675.12 C 728.97 684.32 719.82 693.52 710.59 702.61 C 706.27 707.02 699.32 706.55 694.34 703.59 C 684.38 698.10 674.57 692.27 665.31 685.66 C 661.73 683.00 656.12 681.79 652.93 685.70 L 653.59 686.50 L 653.91 686.89 C 632.12 699.96 609.15 711.23 584.83 718.80 C 581.01 719.82 577.30 722.23 576.36 726.32 C 572.34 740.49 569.98 755.08 566.40 769.36 C 565.58 772.00 564.40 775.24 561.65 776.33 C 528.16 777.31 494.55 776.57 461.01 776.79 C 455.68 776.87 448.41 776.87 446.19 770.88 C 441.80 754.30 440.15 737.06 435.57 720.51 C 434.88 717.00 431.21 715.82 428.37 714.52 C 415.99 709.47 403.43 704.75 391.74 698.22 C 388.65 696.78 385.79 694.35 382.22 694.46 C 374.68 692.19 369.31 683.46 361.08 684.12 C 352.89 688.32 345.57 694.11 337.43 698.47 C 331.45 701.80 325.18 707.79 317.82 705.54 C 318.49 705.37 319.81 705.03 320.47 704.86 C 317.55 703.50 314.54 702.08 312.34 699.66 C 304.87 691.80 296.88 684.46 289.42 676.58 C 288.20 675.63 286.99 673.65 285.18 674.44 C 274.30 662.76 262.81 651.66 252.30 639.64 C 248.20 634.52 248.80 626.79 252.73 621.75 C 259.72 612.08 266.76 602.45 273.80 592.82 C 276.32 589.86 274.31 586.01 272.88 583.06 C 263.27 563.55 256.03 542.87 251.34 521.64 C 249.93 515.92 243.51 515.83 238.93 514.35 C 239.59 514.24 240.92 514.02 241.58 513.90 C 229.61 509.51 216.67 508.10 204.40 504.52 C 199.83 503.21 193.56 502.44 191.99 497.09 C 190.50 489.84 191.31 482.33 192.11 475.04 C 192.71 454.99 194.20 434.99 195.33 414.94 C 195.38 411.19 197.91 407.93 197.55 404.15 C 201.57 400.78 207.10 400.73 212.05 399.91 C 225.09 398.46 237.99 396.02 250.99 394.24 C 254.57 393.84 258.57 392.36 259.51 388.44 C 266.50 368.07 275.93 348.59 287.32 330.33 C 289.43 327.49 289.42 323.51 287.40 320.63 C 278.45 306.73 268.92 293.21 259.18 279.85 C 255.56 274.54 257.96 267.47 262.30 263.37 C 280.34 244.10 299.02 225.42 318.06 207.14 C 322.00 202.75 329.04 201.47 333.88 205.15 C 347.99 215.69 362.20 226.12 376.02 237.03 C 379.40 240.11 384.10 238.47 387.64 236.63 C 404.14 228.22 421.75 222.16 439.69 217.68 C 443.01 216.78 446.98 215.63 448.01 211.86 C 452.25 196.13 455.52 180.15 459.28 164.30 M 473.65 264.39 C 469.74 265.41 464.51 264.46 461.54 267.29 C 462.45 267.33 464.27 267.40 465.18 267.44 C 447.97 270.27 430.86 276.05 417.03 286.96 L 417.45 285.63 C 415.11 285.75 413.64 287.59 412.13 289.13 C 403.50 297.56 396.00 307.93 393.66 319.99 C 389.21 337.13 392.16 354.98 391.40 372.41 C 383.66 373.42 373.86 371.34 367.55 375.35 C 368.21 375.38 369.53 375.45 370.19 375.48 C 350.00 378.67 330.65 388.45 317.17 403.98 L 317.48 402.64 C 312.39 405.15 310.19 410.76 307.30 415.29 C 290.19 445.61 288.90 482.40 294.82 515.98 C 295.93 519.02 295.31 523.73 298.49 525.31 L 298.39 523.83 C 304.80 550.64 321.82 576.12 348.10 586.66 L 346.62 586.46 C 347.54 589.05 350.72 589.15 352.88 590.16 C 366.50 595.40 381.29 595.59 395.67 595.32 C 395.35 612.69 395.54 631.07 404.21 646.67 C 406.98 651.87 409.33 658.18 414.49 661.36 L 414.21 659.92 C 424.27 672.63 438.39 681.37 453.18 687.57 L 451.66 687.49 C 451.74 689.30 453.79 689.48 455.06 690.10 C 489.55 702.18 527.80 702.73 562.92 693.06 C 566.66 691.36 572.02 691.30 574.28 687.57 L 572.88 687.72 C 581.82 683.92 590.39 679.14 597.91 672.96 L 597.59 674.24 C 599.86 674.08 601.42 672.42 602.87 670.86 C 616.94 657.78 624.49 638.48 624.59 619.44 C 626.09 611.50 624.98 603.47 624.58 595.58 C 635.69 594.97 647.27 595.78 657.90 591.88 L 658.29 590.59 L 656.82 590.55 C 672.40 586.34 686.95 578.00 697.76 565.93 L 697.50 567.32 C 699.49 566.46 701.03 564.93 702.33 563.24 C 719.38 541.52 726.43 513.22 726.33 485.98 C 727.42 459.65 722.61 432.32 708.13 409.92 C 705.78 407.03 704.16 403.14 700.52 401.66 L 700.77 403.07 C 688.46 387.84 669.83 378.88 650.84 375.42 C 651.49 375.40 652.78 375.36 653.43 375.34 C 645.50 369.99 633.62 374.48 624.39 372.02 C 626.72 359.71 623.73 347.33 624.19 334.97 C 621.79 320.27 616.78 303.99 604.52 294.70 L 604.75 296.08 C 599.21 290.25 592.69 285.52 585.87 281.30 L 587.35 281.46 C 586.86 279.07 584.18 278.57 582.40 277.50 C 561.22 266.98 537.38 263.53 514.00 262.65 C 500.55 263.15 486.91 261.41 473.65 264.39 Z" />
</g>
</svg>
